<svg width="228" height="228" viewBox="0 0 228 228" fill="none" xmlns="http://www.w3.org/2000/svg">
<rect width="227.834" height="227.834" fill="#EEF2F6"/>
<path d="M74.9116 113.743C74.9116 102.96 78.1509 95.0497 84.6205 88.5801C91.09 82.1105 99.7162 78.5133 110.866 78.5133H117.335C128.476 78.5133 137.111 82.1105 143.581 88.5801C150.05 95.0497 153.289 102.96 153.289 113.743C153.289 124.525 150.05 132.793 143.581 139.263C137.111 145.733 128.485 149.33 117.335 149.33H110.866C99.7251 149.33 91.09 145.733 84.6205 139.263C78.1509 132.793 74.9116 124.883 74.9116 113.743ZM196.778 33.933H31.0562V193.901H196.778V33.933Z" fill="#1F252B"/>
</svg>
